<?xml version="1.0" standalone="no"?>
<!-- Generator: Adobe Fireworks 10, Export SVG Extension by Aaron Beall (http://fireworks.abeall.com) . Version: 0.6.1  -->
<!DOCTYPE svg PUBLIC "-//W3C//DTD SVG 1.1//EN" "http://www.w3.org/Graphics/SVG/1.1/DTD/svg11.dtd">
<svg id="lines_background.fw-P%E1gina%201" viewBox="0 0 600 400" style="background-color:#ffffff00" version="1.1"
	xmlns="http://www.w3.org/2000/svg" xmlns:xlink="http://www.w3.org/1999/xlink" xml:space="preserve"
	x="0px" y="0px" width="600px" height="400px"
>
	<defs>
		<linearGradient id="gradient1" x1="95.2791%" y1="103.9613%" x2="4.7212%" y2="-3.9614%">
			<stop stop-color="#4fc3f7" stop-opacity="1" offset="0%"/>
			<stop stop-color="#4dc2f7" stop-opacity="1" offset="0.5556%"/>
			<stop stop-color="#29b6f6" stop-opacity="1" offset="9.4444%"/>
			<stop stop-color="#03a9f4" stop-opacity="1" offset="18.8889%"/>
			<stop stop-color="#03a2ed" stop-opacity="1" offset="25%"/>
			<stop stop-color="#039be5" stop-opacity="1" offset="31.1111%"/>
			<stop stop-color="#038cd4" stop-opacity="1" offset="50%"/>
			<stop stop-color="#027fc6" stop-opacity="1" offset="65%"/>
			<stop stop-color="#0277bd" stop-opacity="1" offset="75%"/>
			<stop stop-color="#0279bf" stop-opacity="1" offset="77.7778%"/>
			<stop stop-color="#0287d0" stop-opacity="1" offset="98.8889%"/>
			<stop stop-color="#0288d1" stop-opacity="1" offset="100%"/>
		</linearGradient>
	</defs>
	<g id="Layer%201">
		<path d="M 600 -100 L 600 500 L 0 500 L 0 -100 L 600 -100 Z" fill="url(#gradient1)"/>
		<path opacity="0.298" d="M -281.1484 265.8438 L 892.4033 637.5469 L 949.8965 456.0332 L -223.6553 84.3271 L -281.1484 265.8438 Z" fill="#ffffff"/>
		<path opacity="0.298" d="M -284.249 275.6309 L 889.3047 647.3379 L 934.5977 504.3398 L -238.957 132.6309 L -284.249 275.6309 Z" fill="#ffffff"/>
		<path d="M -287.5186 230.5928 L 886.0332 602.2969 L 913.9902 514.0313 L -259.5615 142.3242 L -287.5186 230.5928 Z" fill="#0288d1"/>
		<path d="M -315.0352 242.29 L 858.5166 613.9941 L 886.4736 525.7305 L -287.0781 154.0225 L -315.0352 242.29 Z" fill="#4fc3f7"/>
		<path d="M -275.5801 248.2656 L 897.9717 619.9707 L 925.9287 531.7051 L -247.623 159.998 L -275.5801 248.2656 Z" fill="#0277bd"/>
		<path d="M -376.9141 389.9541 L 889.6875 791.1309 L 919.8613 695.8662 L -346.7402 294.6875 L -376.9141 389.9541 Z" fill="#c7eb2b"/>
		<path d="M -340.9946 9.3994 L 1237.3418 509.3135 L 1274.9414 390.6025 L -303.3945 -109.3145 L -340.9946 9.3994 Z" fill="#0288d1"/>
		<path opacity="0.149" d="M -263.9941 -175.1338 L 1314.3418 324.7803 L 1351.9414 206.0693 L -226.3945 -293.8477 L -263.9941 -175.1338 Z" fill="#ffffff"/>
		<path opacity="0.149" d="M 1513.5 -211.4541 L -517.3213 1259.377 L -512.271 1266.3564 L 1518.5547 -204.4746 L 1513.5 -211.4541 Z" fill="#ffffff"/>
		<path opacity="0.149" d="M 1436.668 -283.6104 L -594.1533 1187.2217 L -581.8218 1204.252 L 1449.002 -266.5781 L 1436.668 -283.6104 Z" fill="#ffffff"/>
		<path opacity="0.149" d="M 1390.4395 -302.2891 L -640.3838 1168.54 L -634.1499 1177.1514 L 1396.6719 -293.6807 L 1390.4395 -302.2891 Z" fill="#ffffff"/>
		<path opacity="0.149" d="M 1323.1641 -355.6416 L -707.6631 1115.1875 L -680.0166 1153.3623 L 1350.8027 -317.4678 L 1323.1641 -355.6416 Z" fill="#ffffff"/>
		<path opacity="0.149" d="M 1265.1777 -388.373 L -765.644 1082.457 L -760.6597 1089.3467 L 1270.166 -381.4834 L 1265.1777 -388.373 Z" fill="#ffffff"/>
		<path opacity="0.149" d="M 1207.3477 -436.4697 L -823.4736 1034.3672 L -811.1436 1051.3916 L 1219.6797 -419.4395 L 1207.3477 -436.4697 Z" fill="#ffffff"/>
		<g>
			<path opacity="0.098" d="M -135.8203 1544.9297 L 538.0205 -870.3379 L 529.7236 -872.6572 L -144.1201 1542.6133 L -135.8203 1544.9297 Z" fill="#ffffff"/>
			<path opacity="0.098" d="M -30.7734 1553.5762 L 643.0674 -861.6924 L 622.8154 -867.3447 L -51.0283 1547.9238 L -30.7734 1553.5762 Z" fill="#ffffff"/>
			<path opacity="0.098" d="M 17.0342 1539.418 L 690.8779 -875.8486 L 680.6387 -878.708 L 6.7979 1536.5605 L 17.0342 1539.418 Z" fill="#ffffff"/>
			<path opacity="0.098" d="M 102.8965 1539.2969 L 776.7441 -875.9727 L 731.3438 -888.6406 L 57.5029 1526.625 L 102.8965 1539.2969 Z" fill="#ffffff"/>
			<path opacity="0.098" d="M 168.6543 1528.8184 L 842.4961 -886.4482 L 834.3066 -888.7383 L 160.4619 1526.5313 L 168.6543 1528.8184 Z" fill="#ffffff"/>
			<path opacity="0.098" d="M 243.8535 1530.4629 L 917.6904 -884.8096 L 897.4434 -890.458 L 223.6016 1524.8105 L 243.8535 1530.4629 Z" fill="#ffffff"/>
		</g>
		<g opacity="0.498">
			<path opacity="0.149" d="M -391.3398 178.46 L 686.1582 546.3281 L 688.2031 543.9258 L -389.2949 176.0566 L -391.3398 178.46 Z" fill="#ffffff"/>
			<path opacity="0.149" d="M -407.3447 210.2461 L 670.1523 578.1152 L 675.1416 572.25 L -402.3555 204.3838 L -407.3447 210.2461 Z" fill="#ffffff"/>
			<path opacity="0.149" d="M -405.9883 225.9141 L 671.5088 593.7813 L 674.0303 590.8164 L -403.4648 222.9492 L -405.9883 225.9141 Z" fill="#ffffff"/>
			<path opacity="0.149" d="M -415.6377 252.373 L 661.8604 620.2422 L 673.043 607.0977 L -404.4551 239.2285 L -415.6377 252.373 Z" fill="#ffffff"/>
			<path opacity="0.149" d="M -418.0679 273.3262 L 659.4297 641.1934 L 661.4482 638.8223 L -416.0483 270.9531 L -418.0679 273.3262 Z" fill="#ffffff"/>
			<path opacity="0.149" d="M -427.3555 296.3828 L 650.1445 664.248 L 655.1328 658.3867 L -422.3647 290.5176 L -427.3555 296.3828 Z" fill="#ffffff"/>
		</g>
		<g>
			<path opacity="0.149" d="M -141.1035 -345.0498 L 520.4238 693.1045 L 523.9922 690.832 L -137.5352 -347.3223 L -141.1035 -345.0498 Z" fill="#ffffff"/>
			<path opacity="0.149" d="M -178.7061 -309.5039 L 482.8213 728.6504 L 491.5273 723.1035 L -170 -315.0498 L -178.7061 -309.5039 Z" fill="#ffffff"/>
			<path opacity="0.149" d="M -189.21 -287.3936 L 472.3174 750.7607 L 476.7197 747.9561 L -184.8086 -290.1973 L -189.21 -287.3936 Z" fill="#ffffff"/>
			<path opacity="0.149" d="M -217.3184 -255.9814 L 444.209 782.1719 L 463.7217 769.7412 L -197.8047 -268.4141 L -217.3184 -255.9814 Z" fill="#ffffff"/>
			<path opacity="0.149" d="M -235.0527 -228.5205 L 426.4756 809.6338 L 429.9971 807.3896 L -231.5293 -230.7637 L -235.0527 -228.5205 Z" fill="#ffffff"/>
			<path opacity="0.149" d="M -260.3086 -201.585 L 401.2207 836.5703 L 409.9238 831.0244 L -251.6035 -207.1299 L -260.3086 -201.585 Z" fill="#ffffff"/>
		</g>
		<g>
			<g opacity="0.149">
				<image x="0" y="115" width="182" height="285" xlink:href="fundo_cartao_azul.svg.images/image1.png"/>
			</g>
			<g opacity="0.149">
				<image x="0" y="0" width="376" height="400" xlink:href="fundo_cartao_azul.svg.images/image2.png"/>
			</g>
			<g opacity="0.149">
				<image x="196" y="0" width="404" height="400" xlink:href="fundo_cartao_azul.svg.images/image3.png"/>
			</g>
		</g>
		<path d="M 0 -100 L 0 500 L 600 500 L 600 -100 L 0 -100 Z" fill="none"/>
		<path d="M 433.8109 154.1302 C 434.6675 155.645 436 160.142 436 162.3195 L 436 166.0118 C 435.8096 167.2426 435.5717 168.7101 435.2386 169.9408 C 435.0958 170.5089 434.9055 171.1243 434.6675 171.7397 C 434.144 173.1598 433.4778 175.0059 432.526 175.858 C 432.3832 176 432.0501 176 431.9073 176 C 431.2411 176 430.7176 175.3846 430.7176 174.8166 C 430.7176 174.3432 431.9073 172.0237 432.0977 171.5503 C 432.5736 170.2722 433.097 168.7574 433.2398 167.5266 C 433.3826 166.7692 433.4302 165.9645 433.5254 165.2071 L 433.5254 162.6509 C 433.335 160.9941 433.097 159.2426 432.526 157.5858 C 432.3356 156.9704 432.0501 156.2603 431.7646 155.645 C 431.6218 155.2663 430.7176 153.7041 430.7176 153.0888 C 430.7176 152.3787 431.2887 152 431.9549 152 C 433.097 152 433.2398 153.0888 433.8109 154.1302 ZM 429.052 156.355 C 430.2893 158.6272 430.8128 161.5148 430.8128 163.929 C 430.8128 166.4379 430.2893 169.0414 429.0996 171.5976 C 428.7188 172.4024 428.243 173.5858 427.2912 173.5858 C 426.6249 173.5858 426.1015 173.0177 426.1015 172.4024 C 426.1015 171.787 426.7201 170.6982 426.9581 170.2249 C 427.1484 169.8462 427.3387 169.4201 427.4339 169.0414 C 427.6719 168.2367 428.005 167.3373 428.1002 166.5325 C 428.1954 165.9645 428.2905 165.3965 428.3381 164.8284 L 428.3381 163.1716 C 428.1954 161.7041 427.9099 159.9527 427.2912 158.4852 C 427.1008 158.0118 426.1015 156.1183 426.1015 155.503 C 426.1015 154.7929 426.5774 154.4142 427.2912 154.4142 C 428.4333 154.4142 428.3857 155.1243 429.052 156.355 ZM 424.3406 158.5799 C 425.1497 160.142 425.5779 162.3669 425.5779 163.9763 C 425.5779 165.9645 425.1021 167.858 424.1027 169.8462 C 423.722 170.5562 423.3413 171.2189 422.675 171.2189 C 422.0088 171.2189 421.4377 170.6509 421.4377 170.0355 C 421.4377 169.4675 421.866 168.8047 422.104 168.284 C 422.1991 168.0473 422.2943 167.716 422.4371 167.4793 C 422.7702 166.5799 422.9606 165.5858 423.1033 164.6864 L 423.1033 163.2189 C 423.0557 162.7929 422.9606 162.2722 422.8178 161.7515 C 422.7227 161.2308 422.4846 160.6154 422.2943 160.142 C 422.0564 159.5266 421.4377 158.5325 421.4377 157.8698 C 421.4377 157.7278 421.4377 157.6805 421.4377 157.5858 C 422.104 156.7337 422.0088 156.8284 422.6274 156.8284 C 423.6268 156.8284 423.722 157.4438 424.3406 158.5799 ZM 419.3438 159.8107 C 420.248 160.9941 420.6763 162.6982 420.6763 163.9763 C 420.6763 165.2544 419.8197 168.9467 418.1541 168.9467 C 417.3926 168.9467 417.0119 168.1893 417.0119 167.716 C 417.0119 167.574 416.9644 167.3373 417.0595 167.2426 C 417.4878 166.4379 418.0113 165.6331 418.1065 164.8284 L 418.1065 163.0769 C 418.0589 162.7929 417.9637 162.3669 417.7733 162.0355 C 417.4402 161.2308 417.0119 160.9467 417.0119 160.2367 C 417.0119 159.574 417.4878 159.0533 418.2016 159.0533 C 418.6776 159.0533 418.8679 159.1953 419.3438 159.8107 Z" fill="#ffffff"/>
	</g>
</svg>