<?xml version="1.0" standalone="no"?>
<!-- Generator: Adobe Fireworks 10, Export SVG Extension by Aaron Beall (http://fireworks.abeall.com) . Version: 0.6.1  -->
<!DOCTYPE svg PUBLIC "-//W3C//DTD SVG 1.1//EN" "http://www.w3.org/Graphics/SVG/1.1/DTD/svg11.dtd">
<svg id="logo_orgcard_medium.fw-P%E1gina%201" viewBox="0 0 785 228" style="background-color:#ffffff00" version="1.1"
	xmlns="http://www.w3.org/2000/svg" xmlns:xlink="http://www.w3.org/1999/xlink" xml:space="preserve"
	x="0px" y="0px" width="785px" height="228px"
>
	<g id="Plano%20de%20fundo">
		<g>
			<path d="M 117.5598 82.9082 C 117.5598 63.4457 117.0117 49.7128 116.0982 41.8914 C 115.0933 34.07 112.0788 26.8852 107.0546 20.2461 C 102.0304 13.607 95.3619 8.6049 87.1404 5.2399 C 78.8276 1.9658 69.51 0.2379 59.0961 0.2379 C 48.1342 0.2379 38.4511 2.0568 30.2297 5.5128 C 22.0082 9.0597 15.4311 14.1527 10.5896 20.7008 C 5.748 27.249 2.9162 34.5247 2.0027 42.437 C 1.0892 50.4403 0.6325 63.9004 0.6325 82.9082 L 0.6325 115.4671 C 0.6325 135.0206 1.0892 148.6626 2.0941 156.4839 C 3.0076 164.3053 6.0221 171.5811 11.0463 178.2202 C 16.0705 184.8593 22.739 189.8613 31.0518 193.1354 C 39.2733 196.5004 48.6823 198.1375 59.0961 198.1375 C 70.0581 198.1375 79.6497 196.4095 87.8712 192.8625 C 96.0927 189.4066 102.6698 184.3136 107.5113 177.7654 C 112.3528 171.2173 115.276 163.9416 116.1895 155.9383 C 117.103 148.0259 117.5598 134.5658 117.5598 115.4671 L 117.5598 82.9082 L 117.5598 82.9082 ZM 70.7888 138.5675 C 70.7888 149.2992 70.0581 156.1202 68.5965 158.9395 C 67.1349 161.8498 63.9376 163.214 58.9134 163.214 C 53.9806 163.214 50.7833 162.0317 49.4131 159.4852 C 48.0428 157.0296 47.4034 150.4815 47.4034 139.9317 L 47.4034 54.9877 C 47.4034 45.6202 48.4082 39.9815 50.5093 38.0716 C 52.519 36.1617 55.5335 35.1613 59.4615 35.1613 C 64.029 35.1613 67.1349 36.3436 68.5965 38.7082 C 70.0581 41.0728 70.7888 46.5296 70.7888 54.9877 L 70.7888 138.5675 L 70.7888 138.5675 Z" fill="#01579b"/>
			<path d="M 129.2525 35.1613 L 129.2525 198.1375 L 176.0234 198.1375 L 176.0234 136.021 C 176.0234 120.8329 176.4802 111.1016 177.485 106.8272 C 178.3985 102.6436 181.0476 99.2786 185.2497 96.914 C 189.4518 94.5494 196.1203 93.3671 205.2552 93.3671 L 205.2552 35.1613 C 192.4663 36.1617 182.6919 44.7107 176.0234 60.8992 L 176.0234 35.1613 L 129.2525 35.1613 L 129.2525 35.1613 Z" fill="#01579b"/>
			<path d="M 281.258 35.1613 L 281.258 50.4403 C 277.2386 45.3473 272.6711 41.5276 267.5556 38.9811 C 262.44 36.4346 256.8677 35.1613 250.6559 35.1613 C 239.2372 35.1613 230.7417 38.5263 225.2608 45.2564 C 219.6885 51.9864 216.948 62.9 216.948 78.179 L 216.948 136.6576 C 216.948 147.3893 217.9528 155.5745 220.0539 161.3951 C 222.1549 167.2156 226.0829 171.8539 231.7466 175.4008 C 237.4102 178.9477 244.6269 180.6757 253.4878 180.6757 C 258.512 180.6757 263.3535 179.5844 268.0123 177.4016 C 272.5798 175.2189 277.0559 171.8539 281.258 167.4885 L 281.258 180.221 C 281.258 187.5876 280.6186 192.4078 279.3397 194.6815 C 278.0608 197.0461 275.5943 198.1375 271.7577 198.1375 C 266.368 198.1375 263.7189 194.3177 263.7189 186.4963 L 216.948 186.4963 C 217.222 202.5938 222.0636 213.4165 231.3812 218.9642 C 240.6988 224.421 253.031 227.2403 268.4691 227.2403 C 280.8926 227.2403 291.3064 225.7852 299.5279 222.8749 C 307.7493 219.9646 314.1438 215.6901 318.8026 210.1424 C 323.3701 204.5037 326.1106 199.2288 326.8414 194.3177 C 327.5722 189.4066 328.0289 178.4021 328.0289 161.3041 L 328.0289 35.1613 L 281.258 35.1613 L 281.258 35.1613 ZM 281.258 130.3823 C 281.258 139.477 280.6186 145.2066 279.5223 147.7531 C 278.3348 150.2996 275.777 151.5728 271.9403 151.5728 C 268.5604 151.5728 266.368 150.5724 265.2719 148.3897 C 264.1756 146.2979 263.7189 141.6597 263.7189 134.5658 L 263.7189 81.1802 C 263.7189 74.4502 264.3583 69.9938 265.8199 67.7202 C 267.1902 65.4465 269.5652 64.2642 273.0365 64.2642 C 276.5078 64.2642 278.7002 65.2646 279.705 67.2654 C 280.7099 69.2663 281.258 73.9045 281.258 81.1802 L 281.258 130.3823 L 281.258 130.3823 Z" fill="#01579b"/>
		</g>
		<g>
			<path d="M 435.3701 64.3914 C 432.4469 56.1152 426.6919 49.2033 418.0137 43.7465 C 409.3355 38.2897 398.9217 35.5613 386.6808 35.5613 C 374.2573 35.5613 363.8435 38.2897 355.2566 43.5646 C 346.6698 48.9305 341.0061 55.0239 338.357 61.7539 C 335.7079 68.5749 334.429 78.67 334.429 91.9481 L 334.429 136.6938 C 334.429 152.0638 335.9819 163.8868 339.2705 172.2539 C 342.4677 180.621 347.9487 187.0782 355.7134 191.6255 C 363.3867 196.2638 373.8919 198.5374 387.2289 198.5374 C 397.5514 198.5374 406.2296 196.8095 413.3549 193.3535 C 420.3888 189.8975 426.1438 184.7136 430.5286 177.8926 C 434.9134 171.0716 437.4711 164.4325 438.2933 157.8844 C 439.1154 151.4272 439.5722 141.6959 439.6635 128.6905 L 398.739 128.6905 L 398.739 147.8802 C 398.739 156.2473 398.0995 161.9769 396.912 164.9782 C 395.7244 167.9794 393.4407 169.4346 390.0608 169.4346 C 387.1376 169.4346 384.8539 168.0704 383.3923 165.342 C 381.9307 162.6136 381.1999 158.521 381.1999 152.9733 L 381.1999 80.4889 C 381.1999 73.8498 381.748 69.5753 382.9355 67.5745 C 384.0317 65.6646 386.3155 64.6642 389.7867 64.6642 C 393.1667 64.6642 395.5417 65.8465 396.8206 68.1202 C 398.0995 70.3938 398.739 74.7593 398.739 81.1255 L 398.739 99.5877 L 439.6635 99.5877 C 439.6635 84.3996 438.2019 72.6675 435.3701 64.3914 L 435.3701 64.3914 Z" fill="#ef5350"/>
			<path d="M 503.9736 83.5811 C 503.9736 75.0321 504.4303 69.7572 505.3438 67.7564 C 506.2573 65.7556 508.541 64.6642 512.3777 64.6642 C 515.6663 64.6642 517.95 65.9374 519.4116 68.3021 C 520.7819 70.6667 521.5126 75.7597 521.5126 83.5811 C 521.5126 89.9473 520.8732 94.2218 519.6857 96.4045 C 518.4981 98.5872 509.5458 102.7708 492.7375 108.8642 C 477.0255 114.5938 467.1597 119.5959 463.1404 123.7794 C 459.121 128.0539 457.2026 136.0572 457.2026 147.7893 L 457.2026 160.7037 C 457.2026 176.5284 460.8566 186.8053 468.1646 191.5346 C 475.4725 196.2638 483.6026 198.5374 492.3722 198.5374 C 499.0406 198.5374 504.7957 197.0823 509.6372 194.0811 C 514.4788 191.1708 518.4067 186.7144 521.5126 180.8029 L 521.5126 198.5374 L 568.2836 198.5374 L 568.2836 118.2317 C 568.2836 91.7663 567.3701 74.3045 565.7258 65.7556 C 563.9901 57.2975 558.8746 50.1128 550.4704 44.2922 C 541.9749 38.4716 529.46 35.5613 512.8344 35.5613 C 498.858 35.5613 487.5306 38.1078 478.8524 43.2008 C 470.1743 48.2938 464.4192 54.1144 461.496 60.7535 C 458.5729 67.3926 457.2026 76.851 457.2026 89.0379 L 457.2026 99.5877 L 503.9736 99.5877 L 503.9736 83.5811 L 503.9736 83.5811 ZM 521.5126 152.7914 C 521.5126 160.3399 520.9645 164.9782 519.9597 166.7971 C 518.8635 168.616 516.6711 169.4346 513.1998 169.4346 C 509.5458 169.4346 507.0794 168.3432 505.8005 166.0695 C 504.5217 163.7959 503.9736 158.7938 503.9736 150.9724 C 503.9736 144.1514 504.613 138.9675 506.0746 135.3296 C 507.5362 131.6918 512.6517 127.2354 521.5126 121.7786 L 521.5126 152.7914 L 521.5126 152.7914 Z" fill="#ef5350"/>
			<path d="M 585.8226 35.5613 L 585.8226 198.5374 L 632.5936 198.5374 L 632.5936 136.421 C 632.5936 121.2329 633.0504 111.5016 634.0552 107.2272 C 634.9687 103.0436 637.6178 99.6786 641.8199 97.314 C 646.022 94.9494 652.6904 93.7671 661.8254 93.7671 L 661.8254 35.5613 C 649.0365 36.5617 639.2621 45.1107 632.5936 61.2992 L 632.5936 35.5613 L 585.8226 35.5613 L 585.8226 35.5613 Z" fill="#ef5350"/>
			<path d="M 737.8281 0.6379 L 737.8281 50.3856 C 733.6261 45.4745 729.0586 41.7457 723.9431 39.2901 C 718.8275 36.8346 713.2551 35.5613 707.2261 35.5613 C 699.2787 35.5613 692.4275 37.4712 686.7638 41.2909 C 681.1002 45.1107 677.4462 49.5671 675.8932 54.6601 C 674.2489 59.7531 673.5181 68.3021 673.5181 80.3979 L 673.5181 153.9737 C 673.5181 165.6148 674.2489 174.0728 675.8932 179.1658 C 677.4462 184.2588 681.0088 188.8062 686.6724 192.7169 C 692.2448 196.6276 698.9133 198.5374 706.5866 198.5374 C 712.2503 198.5374 717.7313 197.3551 722.9382 194.8996 C 728.1451 192.444 733.078 188.7152 737.8281 183.8041 L 737.8281 198.5374 L 784.5991 198.5374 L 784.5991 0.6379 L 737.8281 0.6379 L 737.8281 0.6379 ZM 737.8281 149.972 C 737.8281 158.521 737.1887 163.9778 735.9098 166.1605 C 734.6309 168.3432 732.2559 169.4346 728.6019 169.4346 C 725.3133 169.4346 723.0295 168.5251 721.9333 166.5243 C 720.8372 164.5235 720.2891 160.4309 720.2891 154.1555 L 720.2891 78.9428 C 720.2891 72.9403 720.8372 69.0296 722.0247 67.3016 C 723.2122 65.5737 725.496 64.6642 728.9672 64.6642 C 732.4385 64.6642 734.8136 65.6646 736.0012 67.5745 C 737.1887 69.5753 737.8281 73.3041 737.8281 78.9428 L 737.8281 149.972 L 737.8281 149.972 Z" fill="#ef5350"/>
		</g>
	</g>
	<g id="Camada%201">
	</g>
</svg>