<?xml version="1.0" standalone="no"?>
<!-- Generator: Adobe Fireworks 10, Export SVG Extension by Aaron Beall (http://fireworks.abeall.com) . Version: 0.6.1  -->
<!DOCTYPE svg PUBLIC "-//W3C//DTD SVG 1.1//EN" "http://www.w3.org/Graphics/SVG/1.1/DTD/svg11.dtd">
<svg id="add_cartao.fw-P%E1gina%201" viewBox="0 0 512 388" style="background-color:#ffffff00" version="1.1"
	xmlns="http://www.w3.org/2000/svg" xmlns:xlink="http://www.w3.org/1999/xlink" xml:space="preserve"
	x="0px" y="0px" width="512px" height="388px"
>
	<g id="Plano%20de%20fundo">
		<g>
			<g>
				<path d="M 477.44 3.28 C 487.68 0.72 510.72 16.08 510.72 28.88 L 510.72 292.56 C 510.72 300.24 508.16 302.8 503.04 307.92 C 500.48 313.04 490.24 320.72 482.56 320.72 L 257.28 320.72 L 257.28 292.56 L 477.44 292.56 L 477.44 128.72 L 65.28 128.72 L 65.28 28.88 C 70.4 16.08 83.2 0.72 96 3.28 L 477.44 3.28 ZM 480 34 L 480 64.72 L 96 64.72 L 96 34 L 480 34 ZM 221.44 274.64 C 221.44 338.64 167.68 384.72 111.36 384.72 C 44.8 384.72 1.28 330.96 1.28 272.08 C 1.28 208.08 52.48 164.56 111.36 164.56 C 175.36 164.56 221.44 208.08 221.44 274.64 ZM 367.36 174.8 C 372.48 174.8 392.96 164.56 400.64 164.56 C 426.24 164.56 446.72 182.48 446.72 210.64 C 446.72 236.24 421.12 256.72 400.64 256.72 C 387.84 256.72 369.92 243.92 367.36 243.92 C 359.68 243.92 341.76 256.72 334.08 256.72 C 300.8 256.72 290.56 231.12 290.56 210.64 C 290.56 182.48 308.48 164.56 336.64 164.56 C 341.76 164.56 364.8 174.8 367.36 174.8 ZM 126.72 195.28 L 126.72 259.28 L 190.72 259.28 L 190.72 290 L 126.72 290 L 126.72 354 L 96 354 L 96 290 L 32 290 L 32 259.28 L 96 259.28 L 96 195.28 L 126.72 195.28 Z" fill="#01579b"/>
				<path id="Elipse" d="M 281 208.5 C 281 180.6093 303.6093 158 331.5 158 C 359.3907 158 382 180.6093 382 208.5 C 382 236.3907 359.3907 259 331.5 259 C 303.6093 259 281 236.3907 281 208.5 Z" fill="#01579b"/>
				<path id="Elipse2" d="M 351 208.5 C 351 180.6093 373.6093 158 401.5 158 C 429.3907 158 452 180.6093 452 208.5 C 452 236.3907 429.3907 259 401.5 259 C 373.6093 259 351 236.3907 351 208.5 Z" fill="#01579b"/>
			</g>
			<rect x="94" y="194" width="33" height="161" fill="#ffffff"/>
			<rect x="31" y="259" width="161" height="33" fill="#ffffff"/>
			<rect x="94" y="33" width="387" height="33" fill="#ffffff"/>
		</g>
	</g>
	<g id="Camada%201">
	</g>
</svg>