<?xml version="1.0" standalone="no"?>
<!-- Generator: Adobe Fireworks 10, Export SVG Extension by Aaron Beall (http://fireworks.abeall.com) . Version: 0.6.1  -->
<!DOCTYPE svg PUBLIC "-//W3C//DTD SVG 1.1//EN" "http://www.w3.org/Graphics/SVG/1.1/DTD/svg11.dtd">
<svg id="2030-512.fw-P%E1gina%201" viewBox="0 0 512 512" style="background-color:#ffffff00" version="1.1"
	xmlns="http://www.w3.org/2000/svg" xmlns:xlink="http://www.w3.org/1999/xlink" xml:space="preserve"
	x="0px" y="0px" width="512px" height="512px"
>
	<g id="Plano%20de%20fundo">
		<g>
			<path d="M 448 0 L 448 512 L 321.5377 512 L 321.5377 434.8988 L 191.4622 434.8988 L 191.4622 512 L 65 512 L 65 0 L 448 0 ZM 166.1698 50.5976 L 166.1698 101.1953 L 115.5849 101.1953 L 115.5849 50.5976 L 166.1698 50.5976 ZM 243.2516 50.5976 L 243.2516 101.1953 L 192.6667 101.1953 L 192.6667 50.5976 L 243.2516 50.5976 ZM 320.3333 50.5976 L 320.3333 101.1953 L 269.7484 101.1953 L 269.7484 50.5976 L 320.3333 50.5976 ZM 397.4151 50.5976 L 397.4151 101.1953 L 346.8302 101.1953 L 346.8302 50.5976 L 397.4151 50.5976 ZM 166.1698 127.6988 L 166.1698 178.2965 L 115.5849 178.2965 L 115.5849 127.6988 L 166.1698 127.6988 ZM 243.2516 127.6988 L 243.2516 178.2965 L 192.6667 178.2965 L 192.6667 127.6988 L 243.2516 127.6988 ZM 320.3333 127.6988 L 320.3333 178.2965 L 269.7484 178.2965 L 269.7484 127.6988 L 320.3333 127.6988 ZM 397.4151 127.6988 L 397.4151 178.2965 L 346.8302 178.2965 L 346.8302 127.6988 L 397.4151 127.6988 ZM 166.1698 204.8 L 166.1698 255.3976 L 115.5849 255.3976 L 115.5849 204.8 L 166.1698 204.8 ZM 243.2516 204.8 L 243.2516 255.3976 L 192.6667 255.3976 L 192.6667 204.8 L 243.2516 204.8 ZM 320.3333 204.8 L 320.3333 255.3976 L 269.7484 255.3976 L 269.7484 204.8 L 320.3333 204.8 ZM 397.4151 204.8 L 397.4151 255.3976 L 346.8302 255.3976 L 346.8302 204.8 L 397.4151 204.8 ZM 166.1698 281.9012 L 166.1698 332.4988 L 115.5849 332.4988 L 115.5849 281.9012 L 166.1698 281.9012 ZM 243.2516 281.9012 L 243.2516 332.4988 L 192.6667 332.4988 L 192.6667 281.9012 L 243.2516 281.9012 ZM 320.3333 281.9012 L 320.3333 332.4988 L 269.7484 332.4988 L 269.7484 281.9012 L 320.3333 281.9012 ZM 397.4151 281.9012 L 397.4151 332.4988 L 346.8302 332.4988 L 346.8302 281.9012 L 397.4151 281.9012 Z" fill="#666666"/>
			<g>
				<rect x="114" y="49" width="53" height="53" fill="#ffffff"/>
				<rect x="192" y="50" width="53" height="53" fill="#ffffff"/>
				<rect x="268" y="50" width="53" height="53" fill="#ffffff"/>
				<rect x="346" y="50" width="53" height="53" fill="#ffffff"/>
			</g>
			<g>
				<rect x="114" y="126" width="53" height="53" fill="#ffffff"/>
				<rect x="192" y="127" width="53" height="53" fill="#ffffff"/>
				<rect x="268" y="127" width="53" height="53" fill="#ffffff"/>
				<rect x="346" y="127" width="53" height="53" fill="#ffffff"/>
			</g>
			<g>
				<rect x="114" y="203" width="53" height="53" fill="#ffffff"/>
				<rect x="192" y="204" width="53" height="53" fill="#ffffff"/>
				<rect x="268" y="204" width="53" height="53" fill="#ffffff"/>
				<rect x="346" y="204" width="53" height="53" fill="#ffffff"/>
			</g>
			<g>
				<rect x="114" y="280" width="53" height="53" fill="#ffffff"/>
				<rect x="192" y="281" width="53" height="53" fill="#ffffff"/>
				<rect x="268" y="281" width="53" height="53" fill="#ffffff"/>
				<rect x="346" y="281" width="53" height="53" fill="#ffffff"/>
			</g>
			<rect x="191" y="434" width="132" height="80" fill="#ffffff"/>
		</g>
	</g>
	<g id="Camada%201">
	</g>
</svg>