<?xml version="1.0" standalone="no"?>
<!-- Generator: Adobe Fireworks 10, Export SVG Extension by Aaron Beall (http://fireworks.abeall.com) . Version: 0.6.1  -->
<!DOCTYPE svg PUBLIC "-//W3C//DTD SVG 1.1//EN" "http://www.w3.org/Graphics/SVG/1.1/DTD/svg11.dtd">
<svg id="restaurant-512.fw-P%E1gina%201" viewBox="0 0 65 65" style="background-color:#ffffff00" version="1.1"
	xmlns="http://www.w3.org/2000/svg" xmlns:xlink="http://www.w3.org/1999/xlink" xml:space="preserve"
	x="0px" y="0px" width="65px" height="65px"
>
	<g id="Plano%20de%20fundo">
		<path d="M 11.7432 8.5693 C 15.5518 9.7119 22.1533 14.1553 22.6611 18.8525 C 22.6611 19.1064 22.915 19.7412 22.915 20.249 C 23.042 22.1533 22.915 24.4385 23.6768 26.5967 C 23.8037 27.1045 24.4385 27.6123 24.9463 27.9932 C 27.4854 30.2783 30.1514 32.6904 32.6904 35.1025 C 36.626 38.9111 54.9072 54.2725 54.9072 58.7158 C 54.9072 59.8584 53.3838 61.3818 52.2412 61.3818 C 50.4639 61.3818 47.9248 59.0967 46.5283 57.8271 C 44.624 56.1768 42.7197 54.3994 40.9424 52.4951 C 39.7998 51.2256 38.4033 49.8291 37.1338 48.4326 C 36.1182 47.417 35.1025 46.2744 34.0869 45.1318 C 31.04 41.8311 27.8662 38.4033 24.9463 35.1025 C 23.5498 33.5791 21.6455 30.5322 19.8682 30.0244 C 17.71 29.3896 15.4248 29.6436 13.2666 29.2627 C 12.7588 29.2627 12.124 29.0088 11.6162 28.8818 C 9.8389 28.2471 8.0615 27.3584 6.2842 25.4541 C 4.6338 23.6768 1.333 17.4561 1.333 15.0439 L 1.333 12.124 C 2.3486 8.3154 4.6338 7.8076 7.1729 7.8076 C 8.6963 7.8076 10.0928 8.0615 11.7432 8.5693 Z" fill="#b71c1c"/>
		<path d="M 54.1455 5.5225 C 50.8447 8.8232 47.29 12.124 43.9893 15.6787 C 43.8623 15.6787 43.8623 15.9326 43.8623 16.3135 C 43.8623 17.4561 44.8779 18.2178 45.7666 18.2178 C 46.6553 18.2178 54.6533 9.7119 56.6846 7.8076 C 57.4463 8.4424 58.208 9.3311 59.0967 10.2197 C 55.7959 13.6475 52.1143 17.0752 48.8135 20.6299 C 48.5596 20.7568 48.6865 21.0107 48.6865 21.2646 C 48.6865 22.4072 49.7021 23.1689 50.4639 23.1689 C 51.7334 23.1689 58.0811 16.1865 61.5088 12.8857 C 62.2705 13.6475 63.667 15.1709 63.667 15.5518 C 63.667 15.8057 61.8896 17.4561 61.001 18.4717 C 57.5732 22.0264 53.7646 26.9775 49.7021 29.8975 C 48.4326 30.7861 47.0361 30.6592 45.8936 31.04 L 41.4502 30.4053 C 40.0537 29.8975 38.5303 32.4365 37.3877 33.5791 L 33.7061 30.2783 C 36.1182 27.8662 37.0068 27.7393 37.0068 25.835 C 37.0068 25.5811 36.499 22.7881 36.499 22.5342 L 36.499 20.249 C 36.7529 19.2334 37.0068 17.583 38.1494 16.5674 C 42.4658 11.9971 51.3525 3.6182 51.6064 3.6182 C 51.9873 3.6182 53.3838 4.8877 54.1455 5.5225 ZM 27.8662 43.8623 C 27.8662 44.624 17.0752 55.7959 12.6318 59.3506 C 11.2354 60.4932 9.9658 61.3818 8.6963 61.3818 C 7.2998 61.3818 6.1572 59.8584 6.1572 58.7158 C 6.1572 57.4463 6.665 56.4307 7.8076 55.1611 C 8.6963 53.8916 9.7119 52.749 10.7275 51.7334 C 11.3623 50.9717 23.6768 39.292 23.9307 39.292 C 24.1846 39.292 27.8662 43.6084 27.8662 43.8623 Z" fill="#b71c1c"/>
	</g>
	<g id="Camada%201">
	</g>
</svg>