<?xml version="1.0" standalone="no"?>
<!-- Generator: Adobe Fireworks 10, Export SVG Extension by Aaron Beall (http://fireworks.abeall.com) . Version: 0.6.1  -->
<!DOCTYPE svg PUBLIC "-//W3C//DTD SVG 1.1//EN" "http://www.w3.org/Graphics/SVG/1.1/DTD/svg11.dtd">
<svg id="money.fw-P%E1gina%201" viewBox="0 0 65 65" style="background-color:#ffffff00" version="1.1"
	xmlns="http://www.w3.org/2000/svg" xmlns:xlink="http://www.w3.org/1999/xlink" xml:space="preserve"
	x="0px" y="0px" width="65px" height="65px"
>
	<g id="Plano%20de%20fundo">
		<path id="Elipse" d="M 27 32 C 27 21.5065 33.7156 13 42 13 C 50.2844 13 57 21.5065 57 32 C 57 42.4935 50.2844 51 42 51 C 33.7156 51 27 42.4935 27 32 Z" fill="#006064"/>
		<path d="M 64.4287 32.4365 C 64.4287 45.7666 53.7646 55.6689 41.1963 55.6689 C 32.5635 55.6689 22.5342 50.8447 18.8525 38.7842 C 18.4717 37.3877 18.0908 34.8486 18.0908 34.5947 L 18.0908 30.4053 C 19.9951 16.4404 30.6592 9.3311 41.1963 9.3311 C 54.1455 9.3311 64.4287 19.8682 64.4287 32.4365 ZM 43.9893 15.1709 L 43.9893 18.2178 C 44.3701 18.4717 44.751 18.5986 45.1318 18.5986 C 48.3057 19.3604 52.749 22.2803 52.749 25.9619 L 52.749 26.5967 L 47.1631 26.5967 C 47.1631 25.5811 45.2588 23.8037 44.3701 23.2959 L 43.9893 23.2959 L 43.9893 29.3896 C 43.9893 29.6436 44.3701 29.6436 44.624 29.6436 C 50.083 31.04 52.749 33.7061 52.749 38.2764 C 52.749 42.2119 49.8291 46.0205 44.4971 46.6553 C 44.3701 46.7822 44.1162 46.7822 43.9893 46.9092 L 43.9893 49.8291 L 38.5303 49.8291 L 38.5303 46.9092 C 38.2764 46.6553 38.0225 46.5283 37.7686 46.5283 C 33.4521 46.2744 29.8975 41.0693 29.8975 38.4033 L 35.6104 38.4033 C 35.7373 39.292 36.8799 41.0693 38.2764 41.7041 L 38.5303 41.4502 L 38.5303 33.96 C 38.1494 33.7061 37.6416 33.4521 37.3877 33.4521 C 32.6904 32.6904 30.1514 29.5166 30.1514 25.9619 C 30.1514 21.5186 33.4521 19.3604 38.5303 18.0908 L 38.5303 15.1709 L 43.9893 15.1709 ZM 38.4033 23.1689 L 38.4033 27.9932 C 36.2451 27.2314 35.7373 26.8506 35.7373 25.4541 C 35.7373 24.3115 35.7373 24.0576 37.6416 23.1689 L 38.4033 23.1689 ZM 47.0361 38.4033 C 47.0361 39.6729 46.1475 41.4502 44.2432 41.8311 L 44.2432 35.4834 C 46.4014 35.8643 47.0361 37.0068 47.0361 38.4033 Z" fill="#006064"/>
		<path d="M 19.6143 9.8389 C 9.8389 15.2979 6.4111 24.8193 6.4111 32.4365 C 6.4111 40.0537 9.458 49.0674 19.4873 55.1611 C 19.4873 55.1611 19.4873 55.2881 19.2334 55.2881 C 18.8525 55.2881 16.1865 54.2725 14.6631 53.7646 C 7.8076 51.4795 1.46 42.3389 0.9521 36.7529 C 0.9521 36.1182 0.6982 35.1025 0.6982 34.8486 L 0.6982 30.0244 C 0.9521 28.6279 1.333 27.1045 1.5869 25.708 C 3.2373 17.71 13.6475 9.9658 19.1064 9.8389 L 19.6143 9.8389 ZM 28.2471 9.8389 C 18.4717 15.4248 15.0439 24.9463 15.0439 32.4365 C 15.0439 40.1807 18.5986 49.4482 28.374 55.415 C 27.7393 55.2881 26.9775 54.9072 26.2158 54.7803 C 21.1377 53.8916 13.0127 47.29 11.1084 41.5771 C 10.9814 41.0693 10.6006 40.3076 10.4736 39.9268 C 10.2197 39.165 10.0928 38.4033 9.8389 37.6416 C 9.7119 36.8799 9.458 35.6104 9.458 35.3564 L 9.458 29.6436 C 9.585 28.7549 9.8389 27.7393 9.9658 26.8506 C 10.6006 21.6455 17.4561 13.0127 23.4229 11.1084 C 23.9307 10.9814 24.5654 10.6006 25.0732 10.4736 C 25.708 10.2197 26.7236 10.0928 27.4854 9.8389 L 28.2471 9.8389 Z" fill="#006064"/>
		<text x="31" y="44" width="24" fill="#ffffff" style="font-family: Roboto; font-size: 35px; color: #ffffff; text-align: center; "><tspan><![CDATA[$]]></tspan></text>
	</g>
	<g id="Camada%201">
	</g>
</svg>