<?xml version="1.0" standalone="no"?>
<!-- Generator: Adobe Fireworks 10, Export SVG Extension by Aaron Beall (http://fireworks.abeall.com) . Version: 0.6.1  -->
<!DOCTYPE svg PUBLIC "-//W3C//DTD SVG 1.1//EN" "http://www.w3.org/Graphics/SVG/1.1/DTD/svg11.dtd">
<svg id="Airport_icons-14-512.fw-P%E1gina%201" viewBox="0 0 65 65" style="background-color:#ffffff00" version="1.1"
	xmlns="http://www.w3.org/2000/svg" xmlns:xlink="http://www.w3.org/1999/xlink" xml:space="preserve"
	x="0px" y="0px" width="65px" height="65px"
>
	<g id="Plano%20de%20fundo">
		<path d="M 41.1963 9.0771 C 41.1963 9.0771 44.624 9.9658 44.624 11.4893 L 44.624 23.5498 L 39.7998 23.5498 L 39.7998 15.9326 C 39.6729 15.8057 39.5459 15.5518 39.292 15.4248 L 6.1572 15.4248 C 6.0303 15.5518 5.6494 15.6787 5.6494 16.0596 L 5.6494 39.0381 C 5.7764 39.4189 5.9033 39.7998 6.2842 39.7998 L 20.249 39.7998 L 20.249 54.3994 L 13.0127 54.3994 L 13.0127 58.208 C 12.8857 58.5889 12.6318 58.9697 12.251 59.2236 L 6.5381 59.2236 C 6.2842 59.0967 5.7764 58.7158 5.7764 58.4619 L 5.7764 54.3994 L 2.8564 54.3994 C 2.7295 54.2725 0.9521 53.3838 0.9521 52.749 L 0.9521 11.3623 C 1.2061 10.9814 1.46 10.2197 1.9678 10.0928 C 8.9502 6.792 15.8057 5.7764 22.5342 5.7764 C 28.6279 5.7764 34.9756 6.665 41.1963 9.0771 ZM 12.8857 47.29 C 12.8857 49.3213 11.3623 50.8447 9.3311 50.8447 C 7.0459 50.8447 5.7764 48.9404 5.7764 47.1631 C 5.7764 45.0049 7.5537 43.7354 9.3311 43.7354 C 11.6162 43.7354 12.8857 45.5127 12.8857 47.29 Z" fill="#01579b"/>
		<path d="M 46.5283 28.501 C 50.21 28.7549 54.1455 29.2627 57.9541 30.7861 C 58.8428 32.9443 59.6045 35.1025 60.4932 37.2607 L 26.4697 37.2607 C 27.2314 35.2295 27.7393 32.9443 28.7549 31.04 C 29.0088 30.4053 29.7705 30.4053 30.2783 30.2783 C 31.4209 29.8975 32.5635 29.6436 33.7061 29.3896 C 35.7373 28.8818 38.0225 28.7549 40.1807 28.501 L 46.5283 28.501 ZM 62.1436 42.3389 C 62.9053 42.4658 64.1748 43.6084 64.1748 44.3701 L 64.1748 52.2412 C 64.0479 52.4951 63.0322 54.3994 62.1436 54.3994 L 59.2236 54.3994 L 59.2236 58.335 C 59.0967 58.7158 58.7158 59.2236 58.335 59.2236 L 52.749 59.2236 C 52.3682 58.9697 51.9873 58.4619 51.9873 58.208 L 51.9873 54.3994 L 34.9756 54.3994 L 34.9756 57.9541 C 34.5947 58.4619 34.4678 59.0967 34.0869 59.0967 C 33.1982 59.2236 31.5479 59.2236 31.2939 59.2236 C 30.7861 59.2236 27.6123 59.4775 27.6123 58.0811 L 27.6123 54.3994 L 24.6924 54.3994 C 23.9307 54.2725 22.7881 53.0029 22.7881 52.4951 L 22.7881 44.1162 C 22.7881 43.3545 23.9307 42.2119 24.6924 42.3389 L 62.1436 42.3389 ZM 31.8018 48.3057 C 31.8018 50.083 30.4053 51.2256 28.8818 51.2256 C 27.1045 51.2256 25.9619 49.9561 25.9619 48.3057 C 25.9619 46.7822 26.9775 45.3857 28.8818 45.3857 C 30.6592 45.3857 31.8018 46.6553 31.8018 48.3057 ZM 61.001 48.3057 C 61.001 50.083 59.6045 51.2256 58.0811 51.2256 C 56.1768 51.2256 55.1611 49.8291 55.1611 48.3057 C 55.1611 46.7822 56.1768 45.3857 57.9541 45.3857 C 59.8584 45.3857 61.001 46.6553 61.001 48.3057 Z" fill="#01579b"/>
		<path id="Elipse" d="M 5 47 C 5 44.7908 6.7908 43 9 43 C 11.2092 43 13 44.7908 13 47 C 13 49.2092 11.2092 51 9 51 C 6.7908 51 5 49.2092 5 47 Z" fill="#ffffff"/>
		<path id="Elipse2" d="M 26 48 C 26 46.3431 27.3431 45 29 45 C 30.6569 45 32 46.3431 32 48 C 32 49.6569 30.6569 51 29 51 C 27.3431 51 26 49.6569 26 48 Z" fill="#ffffff"/>
		<path id="Elipse3" d="M 55 48 C 55 46.3431 56.3431 45 58 45 C 59.6569 45 61 46.3431 61 48 C 61 49.6569 59.6569 51 58 51 C 56.3431 51 55 49.6569 55 48 Z" fill="#ffffff"/>
	</g>
	<g id="Camada%201">
	</g>
</svg>