<?xml version="1.0" standalone="no"?>
<!-- Generator: Adobe Fireworks 10, Export SVG Extension by Aaron Beall (http://fireworks.abeall.com) . Version: 0.6.1  -->
<!DOCTYPE svg PUBLIC "-//W3C//DTD SVG 1.1//EN" "http://www.w3.org/Graphics/SVG/1.1/DTD/svg11.dtd">
<svg id="Full_Shopping_Cart-512.fw-P%E1gina%201" viewBox="0 0 65 65" style="background-color:#ffffff00" version="1.1"
	xmlns="http://www.w3.org/2000/svg" xmlns:xlink="http://www.w3.org/1999/xlink" xml:space="preserve"
	x="0px" y="0px" width="65px" height="65px"
>
	<g id="Plano%20de%20fundo">
		<g>
			<g>
				<path d="M 43.8431 7.9429 C 45.4965 10.6661 46.7955 13.6261 48.2127 16.4677 L 41.0088 16.4677 L 34.1592 11.1397 C 34.1592 11.1397 34.1592 11.0213 34.1592 10.9029 C 35.104 10.3109 41.5993 7.1141 42.3079 7.1141 C 42.8983 7.1141 43.3707 6.9957 43.8431 7.9429 ZM 37.7021 16.4677 L 20.9325 16.4677 C 22.822 14.0997 24.5935 11.6133 26.6011 9.3637 C 26.8373 9.0085 27.4278 9.0085 27.7821 9.0085 C 29.0811 9.0085 35.4583 14.5733 37.7021 16.4677 Z" fill="#e65100"/>
				<path d="M 17.1534 18.4805 L 51.047 18.4805 C 53.2908 18.7173 54.5898 20.8485 54.5898 22.6245 C 54.5898 22.8613 54.1175 25.3477 53.6451 26.7685 C 52.4641 30.4389 51.4012 35.8853 46.3231 38.6085 C 45.7326 38.8453 44.7879 39.2005 44.4336 39.2005 L 24.5935 39.2005 C 24.5935 39.2005 24.4754 39.0821 24.4754 39.4373 C 24.4754 40.5029 26.483 43.1077 27.7821 43.1077 L 49.5117 43.1077 C 50.6927 43.6997 50.9289 44.1733 50.9289 44.8837 C 50.9289 45.4757 50.3384 46.7781 49.5117 46.7781 L 27.1916 46.7781 C 20.8144 45.5941 20.342 38.3717 18.5706 34.2277 C 17.2715 31.0309 16.563 27.5973 15.1458 24.4005 C 13.9648 21.7957 13.0201 14.5733 8.8867 14.5733 L 5.1076 14.5733 C 3.9267 13.8629 3.8086 13.3893 3.8086 12.6789 C 3.8086 10.3109 6.4067 10.9029 7.3515 10.9029 C 11.9572 10.9029 14.4372 11.4949 17.1534 18.4805 ZM 26.3649 25.9397 C 26.3649 27.0053 25.3021 27.8341 24.4754 27.8341 C 23.2944 27.8341 22.7039 26.7685 22.7039 25.9397 C 22.7039 24.8741 23.6487 24.1637 24.4754 24.1637 C 25.5382 24.1637 26.3649 25.1109 26.3649 25.9397 ZM 33.9231 25.9397 C 33.9231 27.0053 32.8602 27.8341 32.0335 27.8341 C 30.8526 27.8341 30.2621 26.7685 30.2621 25.9397 C 30.2621 24.8741 31.2069 24.1637 32.0335 24.1637 C 33.0964 24.1637 33.9231 25.1109 33.9231 25.9397 ZM 41.4812 25.9397 C 41.4812 27.1237 40.4183 27.8341 39.5917 27.8341 C 38.5288 27.8341 37.8202 26.7685 37.8202 25.9397 C 37.8202 24.8741 38.765 24.1637 39.5917 24.1637 C 40.7726 24.1637 41.4812 25.1109 41.4812 25.9397 ZM 49.0393 26.0581 C 49.0393 27.1237 47.9765 27.8341 47.2679 27.8341 C 45.9688 27.8341 45.3784 26.7685 45.3784 25.9397 C 45.3784 24.8741 46.3231 24.1637 47.1498 24.1637 C 48.3308 24.1637 49.0393 25.1109 49.0393 26.0581 ZM 30.144 31.6229 C 30.144 32.6885 29.0811 33.5173 28.2545 33.5173 C 27.0735 33.5173 26.483 32.4517 26.483 31.6229 C 26.483 30.5573 27.4278 29.8469 28.2545 29.8469 C 29.3173 29.8469 30.144 30.7941 30.144 31.6229 ZM 37.7021 31.6229 C 37.7021 32.6885 36.6393 33.5173 35.8126 33.5173 C 34.6316 33.5173 34.0412 32.4517 34.0412 31.6229 C 34.0412 30.5573 34.9859 29.8469 35.8126 29.8469 C 36.8755 29.8469 37.7021 30.7941 37.7021 31.6229 ZM 45.2603 31.6229 C 45.2603 32.8069 44.1974 33.5173 43.3707 33.5173 C 42.3079 33.5173 41.5993 32.4517 41.5993 31.6229 C 41.5993 30.5573 42.5441 29.8469 43.3707 29.8469 C 44.5517 29.8469 45.2603 30.7941 45.2603 31.6229 Z" fill="#e65100"/>
				<path d="M 32.0335 53.5269 C 32.0335 56.1317 29.7897 58.1445 27.4278 58.1445 C 24.8297 58.1445 22.7039 56.1317 22.7039 53.5269 C 22.7039 50.9221 24.5935 48.7909 27.4278 48.7909 C 30.0259 48.7909 32.0335 50.9221 32.0335 53.5269 ZM 50.9289 53.4085 C 50.9289 56.1317 48.685 58.1445 46.205 58.1445 C 43.4888 58.1445 41.5993 55.8949 41.5993 53.4085 C 41.5993 50.6853 43.725 48.7909 46.205 48.7909 C 48.9212 48.7909 50.9289 50.9221 50.9289 53.4085 Z" fill="#e65100"/>
			</g>
		</g>
	</g>
	<g id="Camada%201">
	</g>
</svg>