<?xml version="1.0" standalone="no"?>
<!-- Generator: Adobe Fireworks 10, Export SVG Extension by Aaron Beall (http://fireworks.abeall.com) . Version: 0.6.1  -->
<!DOCTYPE svg PUBLIC "-//W3C//DTD SVG 1.1//EN" "http://www.w3.org/Graphics/SVG/1.1/DTD/svg11.dtd">
<svg id="question-mark-512-P%E1gina%201" viewBox="0 0 512 512" style="background-color:#ffffff00" version="1.1"
	xmlns="http://www.w3.org/2000/svg" xmlns:xlink="http://www.w3.org/1999/xlink" xml:space="preserve"
	x="0px" y="0px" width="512px" height="512px"
>
	<g id="Plano%20de%20fundo">
		<path d="M 386 157.1252 C 386 249.6888 288.3948 273.2505 288.3948 322.0568 L 288.3948 347.3014 C 287.5534 364.9726 263.9935 363.2896 254.7379 363.2896 C 252.2136 363.2896 239.5922 363.2896 232.8608 361.6067 C 230.3366 361.6067 221.9223 353.1918 221.9223 349.8258 L 221.9223 314.4834 C 223.6052 305.227 224.4466 295.1292 227.8123 286.7143 C 244.6408 245.4814 315.3204 210.1389 319.5275 168.0646 L 319.5275 151.2348 C 312.7961 115.8924 285.0291 99.9041 258.945 99.9041 C 250.5307 99.9041 239.5922 102.4286 232.8608 104.953 C 220.2395 109.1605 205.0939 125.9902 200.8867 137.771 C 198.3625 144.5029 195.8382 152.9178 192.4725 160.4912 C 189.1068 167.2231 182.3754 166.3816 178.1683 166.3816 C 176.4854 166.3816 147.877 163.8571 134.4142 161.3327 C 127.6829 160.4912 126 152.9178 126 148.7104 C 126 141.137 132.7314 122.6243 134.4142 118.4168 C 160.4984 56.9883 217.7152 41 260.6278 41 C 328.7832 41 386 81.3914 386 157.1252 ZM 290.9191 434.816 C 290.9191 455.8532 271.5663 471 253.8965 471 C 231.178 471 218.5566 451.6458 218.5566 433.9745 C 218.5566 413.7788 235.3851 398.6321 253.8965 398.6321 C 275.7735 398.6321 290.9191 415.4619 290.9191 434.816 Z" fill="#cccccc"/>
	</g>
	<g id="Camada%201">
	</g>
</svg>