<?xml version="1.0" standalone="no"?>
<!-- Generator: Adobe Fireworks 10, Export SVG Extension by Aaron Beall (http://fireworks.abeall.com) . Version: 0.6.1  -->
<!DOCTYPE svg PUBLIC "-//W3C//DTD SVG 1.1//EN" "http://www.w3.org/Graphics/SVG/1.1/DTD/svg11.dtd">
<svg id="05-512.fw-P%E1gina%201" viewBox="0 0 512 512" style="background-color:#ffffff00" version="1.1"
	xmlns="http://www.w3.org/2000/svg" xmlns:xlink="http://www.w3.org/1999/xlink" xml:space="preserve"
	x="0px" y="0px" width="512px" height="512px"
>
	<g id="Plano%20de%20fundo">
		<g>
			<path d="M 473.9394 0 L 474.9697 73.1429 C 481.1515 84.4748 510 135.9839 510 142.165 C 510 144.2253 506.9091 147.3159 506.9091 151.4366 C 503.8182 181.3119 483.2121 194.7042 462.606 194.7042 C 447.1515 194.7042 434.7879 188.5231 421.3939 171.0101 C 404.9091 188.5231 394.606 194.7042 379.1515 194.7042 C 354.4242 194.7042 337.9394 171.0101 336.9091 171.0101 C 334.8485 171.0101 329.697 179.2515 326.606 182.342 C 316.303 191.6137 306 194.7042 295.697 194.7042 C 270.9697 194.7042 254.4848 171.0101 253.4545 171.0101 C 251.3939 171.0101 244.1818 181.3119 239.0303 185.4326 C 228.7273 192.6439 222.5454 194.7042 212.2424 194.7042 C 196.7879 194.7042 184.4242 188.5231 171.0303 171.0101 C 166.9091 174.1006 161.7576 180.2817 155.5758 185.4326 C 149.3939 189.5533 143.2121 192.6439 137.0303 193.674 C 134.9697 194.7042 130.8485 194.7042 128.7879 194.7042 C 113.3333 194.7042 100.9697 188.5231 87.5758 171.0101 C 83.4545 174.1006 78.303 180.2817 72.1212 185.4326 C 62.8485 192.6439 52.5455 194.7042 44.303 194.7042 C 17.5152 194.7042 0 173.0704 0 150.4064 C 0 128.7726 32.9697 84.4748 42.2424 69.0221 L 42.2424 0 L 473.9394 0 ZM 106.1212 226.6398 C 115.3939 229.7304 119.5152 230.7606 129.8182 230.7606 C 138.0606 230.7606 144.2424 230.7606 156.606 225.6096 C 161.7576 223.5493 168.9697 218.3984 172.0606 218.3984 C 174.1212 218.3984 181.3333 223.5493 187.5152 225.6096 C 200.9091 231.7907 201.9394 230.7606 214.303 230.7606 C 216.3636 230.7606 227.697 229.7304 234.9091 227.67 C 242.1212 225.6096 253.4545 218.3984 255.5151 218.3984 C 258.606 218.3984 265.8182 223.5493 272 225.6096 C 284.3636 231.7907 286.4242 230.7606 297.7576 230.7606 C 323.5151 230.7606 334.8485 218.3984 340 218.3984 C 343.0909 218.3984 351.3333 223.5493 356.4848 225.6096 C 366.7879 230.7606 372.9697 230.7606 382.2424 230.7606 C 410.0606 230.7606 416.2424 218.3984 424.4848 218.3984 C 424.4848 218.3984 450.2424 230.7606 457.4545 230.7606 C 459.5151 230.7606 477.0303 230.7606 482.1818 229.7304 C 478.0606 509.9396 481.1515 510.9698 480.1212 512 L 212.2424 512 L 209.1515 322.4467 L 207.0909 320.3863 L 83.4545 320.3863 L 83.4545 508.9094 C 82.4242 509.9396 81.3939 510.9698 80.3636 512 L 29.8788 510.9698 L 29.8788 229.7304 C 35.0303 229.7304 43.2727 230.7606 46.3636 230.7606 C 69.0303 230.7606 85.5152 218.3984 87.5758 218.3984 C 90.6667 218.3984 98.9091 224.5795 106.1212 226.6398 ZM 427.5757 330.6881 L 427.5757 425.4648 L 291.5757 425.4648 L 291.5757 330.6881 L 427.5757 330.6881 Z" fill="#666666"/>
			<rect x="291" y="329" width="137" height="97" fill="#ffffff"/>
			<rect x="81" y="320" width="133" height="192" fill="#ffffff"/>
		</g>
	</g>
	<g id="Camada%201">
	</g>
</svg>