<?xml version="1.0" standalone="no"?>
<!-- Generator: Adobe Fireworks 10, Export SVG Extension by Aaron Beall (http://fireworks.abeall.com) . Version: 0.6.1  -->
<!DOCTYPE svg PUBLIC "-//W3C//DTD SVG 1.1//EN" "http://www.w3.org/Graphics/SVG/1.1/DTD/svg11.dtd">
<svg id="account_male-512.fw-P%E1gina%201" viewBox="0 0 512 512" style="background-color:#ffffff00" version="1.1"
	xmlns="http://www.w3.org/2000/svg" xmlns:xlink="http://www.w3.org/1999/xlink" xml:space="preserve"
	x="0px" y="0px" width="512px" height="512px"
>
	<g id="Plano%20de%20fundo">
		<path d="M 371.5 60.5 C 382.5 79.5 385.5 103.5 385.5 125.5 C 385.5 127.5 383.5 156.5 381.5 178.5 C 394.5 172.5 399.5 194.5 399.5 202.5 C 399.5 216.5 387.5 238.5 376.5 255.5 C 367.5 268.5 362.5 285.5 353.5 300.5 C 339.5 322.5 308.5 351.5 308.5 351.5 C 308.5 362.5 337.5 399.5 344.5 404.5 C 348.5 408.5 354.5 413.5 361.5 414.5 C 409.5 425.5 473.5 438.5 503.5 469.5 C 506.5 471.5 507.5 476.5 508.5 480.5 C 510.5 485.5 511.5 496.5 511.5 499.5 L 511.5 511.5 L 0.5 511.5 L 0.5 499.5 C 1.5 490.5 -0.5 480.5 5.5 472.5 C 20.5 450.5 46.5 444.5 65.5 436.5 C 91.5 426.5 123.5 421.5 150.5 414.5 C 158.5 412.5 169.5 404.5 178.5 393.5 C 179.5 392.5 203.5 357.5 203.5 351.5 C 203.5 351.5 174.5 330.5 157.5 300.5 C 148.5 285.5 142.5 269.5 134.5 255.5 C 132.5 250.5 126.5 246.5 123.5 241.5 C 117.5 231.5 112.5 213.5 112.5 202.5 C 112.5 195.5 114.5 174.5 130.5 178.5 L 126.5 141.5 L 126.5 107.5 C 130.5 27.5 204.5 0.5 255.5 0.5 C 292.5 0.5 345.5 13.5 371.5 60.5 Z" fill="#666666"/>
	</g>
	<g id="Camada%201">
	</g>
</svg>